<svg width="200" height="27" viewBox="0 0 200 27" fill="none" xmlns="http://www.w3.org/2000/svg">
<path d="M10.3036 26.3691C13.3162 26.3691 18.1291 26.0077 18.1291 22.8996V17.37C18.1291 17.37 18.1291 17.37 18.1291 17.3339L18.0923 16.9725C15.5941 18.4542 12.0303 15.0931 8.94421 17.0086V17.37C10.5975 16.358 12.3977 16.8279 14.0877 17.2616V22.9718C14.0877 25.1042 12.4712 26.0077 10.5975 26.0077C5.74787 26.0077 4.60894 19.6469 4.60894 15.9966C4.60894 9.78035 7.03376 6.09395 10.671 6.09395C12.6182 6.09395 14.7491 6.92519 16.4391 10.3586V7.46732C14.9327 6.56379 13.2795 5.73255 10.3036 5.73255C4.16807 5.73255 0.200195 10.1779 0.200195 16.0328C0.200195 21.2009 3.58024 26.3691 10.3036 26.3691ZM28.4824 26.3691C33.92 26.3691 36.6019 22.6828 36.6019 18.2735C36.6019 13.8643 33.8832 10.1418 28.4824 10.1418C23.0818 10.1418 20.3629 13.8643 20.3629 18.2735C20.3629 22.6828 23.0818 26.3691 28.4824 26.3691ZM28.4824 10.5032C30.944 10.5032 32.1932 13.9727 32.1932 18.2374C32.1932 22.466 30.9807 26.0077 28.4824 26.0077C26.0209 26.0077 24.7718 22.466 24.7718 18.2374C24.7718 13.9727 26.0209 10.5032 28.4824 10.5032ZM46.6011 26.3691C52.0386 26.3691 54.7206 22.6828 54.7206 18.2735C54.7206 13.8643 52.0019 10.1418 46.6011 10.1418C41.2005 10.1418 38.4816 13.8643 38.4816 18.2735C38.4816 22.6828 41.2005 26.3691 46.6011 26.3691ZM46.6011 10.5032C49.0626 10.5032 50.3119 13.9727 50.3119 18.2374C50.3119 22.466 49.0994 26.0077 46.6011 26.0077C44.1395 26.0077 42.8905 22.466 42.8905 18.2374C42.8905 13.9727 44.1395 10.5032 46.6011 10.5032ZM72.6273 6.67221C72.6273 0.0222336 64.1405 1.03419 64.1405 5.76868C64.1405 8.00944 65.3529 9.38281 66.4184 10.1779C66.1611 10.1418 65.8673 10.1418 65.6102 10.1418C60.2828 10.1418 56.6457 13.7559 56.6457 18.9602C56.6457 22.755 59.0338 26.3329 63.1486 26.3691C64.7282 26.3691 66.0509 25.8993 67.8511 24.4175L68.586 23.8392C68.7329 25.7548 70.3861 26.0077 71.819 26.0077H72.6273V6.67221ZM68.586 11.1537C66.5654 10.0333 64.5079 8.5877 64.5079 5.98553C64.5079 2.58826 68.586 2.37141 68.586 5.76868V11.1537ZM67.7777 24.0201C64.2507 26.9474 61.0911 23.8031 61.0911 18.4542C61.0911 15.5991 62.1932 10.5032 66.0142 10.5032C67.4104 10.5032 68.586 11.4429 68.586 12.8885V23.3695L67.7777 24.0201ZM75.9569 6.09395L75.9202 26.0077H82.8639C89.5137 26.0077 92.8203 21.2009 92.8203 16.0328C92.7835 10.8646 89.477 6.09395 82.8639 6.09395H75.9569ZM82.8639 6.45537C86.1704 6.45537 88.3748 11.4067 88.4116 16.0328C88.4116 20.6588 86.2071 25.6464 82.8639 25.6464H79.9615V6.45537H82.8639ZM103.458 11.1176C104.56 11.1176 105.846 11.5874 107.536 13.6113V11.2621C106.911 10.3948 106.066 10.1418 105.074 10.1418C102.87 10.1418 101.216 11.2621 99.857 12.3464L99.4529 12.7078C99.306 10.7562 97.6527 10.5032 96.1831 10.5032H95.4116V23.514C95.4116 25.7187 97.1383 26.0077 98.6447 26.0077H99.4529V13.1415L99.9306 12.7439C101.143 11.732 102.319 11.1176 103.458 11.1176ZM123.006 16.1773C122.676 11.985 119.149 10.1418 115.952 10.1418C112.058 10.1418 107.943 12.5632 107.943 18.2374C107.943 23.4056 111.874 26.3329 115.732 26.3329C118.634 26.3329 121.463 24.6705 122.566 21.1287C121.61 22.7189 120.031 23.514 118.377 23.514C114.226 23.514 111.838 19.8998 111.801 16.1773H123.006ZM111.801 15.8159C111.911 12.0211 113.895 10.5032 115.806 10.5032C117.679 10.5032 119.259 11.8765 119.259 13.7197C119.259 14.3341 119.149 15.1292 118.745 15.8159H111.801ZM132.638 10.1418C130.25 10.1418 128.487 10.8646 126.87 11.8765V14.7678C128.009 12.5632 129.516 10.5032 132.161 10.5032C134.218 10.5032 135.284 11.6958 135.284 13.0692C135.284 14.5871 134.145 15.8159 132.859 16.4665C129.663 18.0928 124.519 18.382 124.519 22.3937C124.519 24.6343 126.356 26.3691 128.781 26.3691C131.536 26.3691 133.961 24.7788 135.247 23.7669C135.247 25.321 136.055 26.3691 137.635 26.3691C138.737 26.3691 139.913 25.8993 140.354 25.321C139.399 25.574 138.921 25.1042 138.921 23.8753V18.4542H138.701C138.003 20.7312 136.753 22.7912 135.247 23.7669C132.896 25.3572 128.744 24.6705 128.744 21.2009C128.707 18.9964 130.544 17.8398 132.675 16.9725C135.541 15.7798 138.958 15.1654 138.958 13.3583C138.958 11.2983 135.798 10.1418 132.638 10.1418ZM143.166 23.514C143.166 25.7187 144.893 26.0077 146.399 26.0077H147.207V12.9969C147.207 12.9246 147.207 12.8162 147.207 12.7439C148.42 11.7681 149.485 11.1176 150.624 11.1176C152.094 11.1176 153.453 12.2018 153.453 14.8401V23.514C153.453 25.7187 155.18 26.0077 156.686 26.0077H157.494V14.804C157.494 14.1173 157.421 13.4668 157.237 12.9608L157.458 12.7439C158.67 11.732 159.772 11.1176 160.874 11.1176C162.344 11.1176 163.703 12.2018 163.703 14.8401V23.514C163.703 25.7187 165.43 26.0077 166.936 26.0077H167.745V14.804C167.745 11.6597 165.981 10.1418 162.968 10.1418C160.764 10.1418 159.037 11.0091 157.384 12.3464L157.09 12.5994C156.429 10.9369 154.886 10.1418 152.681 10.1418C150.514 10.1418 148.787 11.0091 147.134 12.3464C146.84 10.72 145.297 10.5032 143.937 10.5032H143.166V23.514ZM185.076 16.1773C184.746 11.985 181.218 10.1418 178.022 10.1418C174.128 10.1418 170.013 12.5632 170.013 18.2374C170.013 23.4056 173.944 26.3329 177.802 26.3329C180.704 26.3329 183.533 24.6705 184.635 21.1287C183.68 22.7189 182.1 23.514 180.447 23.514C176.295 23.514 173.907 19.8998 173.871 16.1773H185.076ZM173.871 15.8159C173.981 12.0211 175.965 10.5032 177.875 10.5032C179.749 10.5032 181.329 11.8765 181.329 13.7197C181.329 14.3341 181.218 15.1292 180.814 15.8159H173.871ZM195.737 11.1176C196.839 11.1176 198.125 11.5874 199.815 13.6113V11.2621C199.19 10.3948 198.345 10.1418 197.353 10.1418C195.149 10.1418 193.496 11.2621 192.137 12.3464L191.732 12.7078C191.585 10.7562 189.932 10.5032 188.462 10.5032H187.691V23.514C187.691 25.7187 189.418 26.0077 190.924 26.0077H191.732V13.1415L192.21 12.7439C193.422 11.732 194.598 11.1176 195.737 11.1176Z" fill="white"/>
</svg>
