<svg width="20" height="18" viewBox="0 0 20 18" fill="none" xmlns="http://www.w3.org/2000/svg">
<path d="M6.23926 5.25C6.23926 5.10082 6.30181 4.95774 6.41316 4.85225C6.52451 4.74676 6.67554 4.6875 6.83301 4.6875H13.1663C13.3238 4.6875 13.4748 4.74676 13.5862 4.85225C13.6975 4.95774 13.7601 5.10082 13.7601 5.25C13.7601 5.39918 13.6975 5.54226 13.5862 5.64775C13.4748 5.75324 13.3238 5.8125 13.1663 5.8125H6.83301C6.67554 5.8125 6.52451 5.75324 6.41316 5.64775C6.30181 5.54226 6.23926 5.39918 6.23926 5.25ZM6.83301 7.3125C6.67554 7.3125 6.52451 7.37176 6.41316 7.47725C6.30181 7.58274 6.23926 7.72582 6.23926 7.875C6.23926 8.02418 6.30181 8.16726 6.41316 8.27275C6.52451 8.37824 6.67554 8.4375 6.83301 8.4375H10.7913C10.9488 8.4375 11.0998 8.37824 11.2112 8.27275C11.3225 8.16726 11.3851 8.02418 11.3851 7.875C11.3851 7.72582 11.3225 7.58274 11.2112 7.47725C11.0998 7.37176 10.9488 7.3125 10.7913 7.3125H6.83301Z" fill="white"/>
<path fill-rule="evenodd" clip-rule="evenodd" d="M8.37345 0.9375C7.29124 0.9375 6.41803 0.9375 5.73166 1.02525C5.01916 1.11525 4.41908 1.31025 3.94249 1.761C3.46591 2.2125 3.26166 2.781 3.16587 3.456C3.07324 4.10625 3.07324 4.9335 3.07324 5.95875V12.0412C3.07324 13.0665 3.07324 13.8937 3.16587 14.544C3.26087 15.219 3.4667 15.7875 3.94249 16.239C4.41908 16.6905 5.01916 16.884 5.73166 16.9755C6.41803 17.0625 7.29124 17.0625 8.37345 17.0625H11.6272C12.7094 17.0625 13.5826 17.0625 14.269 16.9755C14.9815 16.884 15.5816 16.6905 16.0582 16.239C16.5347 15.7875 16.739 15.219 16.8356 14.544C16.9274 13.8937 16.9274 13.0665 16.9274 12.0412V5.95875C16.9274 4.9335 16.9274 4.10625 16.8356 3.456C16.739 2.781 16.5347 2.2125 16.0582 1.761C15.5816 1.3095 14.9815 1.116 14.269 1.02525C13.5826 0.9375 12.7094 0.9375 11.6272 0.9375H8.37345ZM4.78324 2.55675C5.00253 2.349 5.3097 2.214 5.89158 2.13975C6.48849 2.064 7.28174 2.0625 8.41778 2.0625H11.5845C12.7205 2.0625 13.513 2.064 14.1115 2.13975C14.6925 2.214 14.9997 2.34975 15.219 2.55675C15.4383 2.7645 15.5808 3.0555 15.6592 3.60675C15.7391 4.17225 15.7407 4.92375 15.7407 6V11.4375H6.66108C6.01349 11.4375 5.57174 11.4375 5.19253 11.5335C4.85906 11.6181 4.54374 11.7572 4.26074 11.9445V6C4.26074 4.92375 4.26233 4.17225 4.34228 3.606C4.42066 3.0555 4.56474 2.7645 4.78324 2.55675ZM4.28212 13.6867C4.29399 13.9522 4.31299 14.1855 4.34228 14.394C4.42066 14.9445 4.56395 15.2355 4.78245 15.4432C5.00174 15.651 5.30891 15.786 5.89078 15.8602C6.4877 15.936 7.28095 15.9375 8.41699 15.9375H11.5837C12.7197 15.9375 13.5122 15.936 14.1107 15.8602C14.6917 15.786 14.9989 15.6502 15.2182 15.4432C15.4375 15.2355 15.58 14.9445 15.6584 14.3932C15.7241 13.932 15.7367 13.347 15.7391 12.5625H6.75291C5.97866 12.5625 5.70791 12.567 5.4997 12.6202C5.22067 12.6912 4.96404 12.8253 4.75192 13.0111C4.5398 13.1969 4.37857 13.4288 4.28212 13.6867Z" fill="white"/>
</svg>
