<svg width="20" height="20" viewBox="0 0 20 20" fill="none" xmlns="http://www.w3.org/2000/svg">
<path d="M6.04199 5.83301C6.04199 5.66725 6.10784 5.50828 6.22505 5.39107C6.34226 5.27386 6.50123 5.20801 6.66699 5.20801H13.3337C13.4994 5.20801 13.6584 5.27386 13.7756 5.39107C13.8928 5.50828 13.9587 5.66725 13.9587 5.83301C13.9587 5.99877 13.8928 6.15774 13.7756 6.27495C13.6584 6.39216 13.4994 6.45801 13.3337 6.45801H6.66699C6.50123 6.45801 6.34226 6.39216 6.22505 6.27495C6.10784 6.15774 6.04199 5.99877 6.04199 5.83301ZM6.66699 8.12467C6.50123 8.12467 6.34226 8.19052 6.22505 8.30773C6.10784 8.42494 6.04199 8.58391 6.04199 8.74967C6.04199 8.91543 6.10784 9.07441 6.22505 9.19162C6.34226 9.30883 6.50123 9.37467 6.66699 9.37467H10.8337C10.9994 9.37467 11.1584 9.30883 11.2756 9.19162C11.3928 9.07441 11.4587 8.91543 11.4587 8.74967C11.4587 8.58391 11.3928 8.42494 11.2756 8.30773C11.1584 8.19052 10.9994 8.12467 10.8337 8.12467H6.66699Z" fill="#6C4E9A"/>
<path fill-rule="evenodd" clip-rule="evenodd" d="M8.28717 1.04199C7.14801 1.04199 6.22884 1.04199 5.50634 1.13949C4.75634 1.23949 4.12467 1.45616 3.62301 1.95699C3.12134 2.45866 2.90634 3.09033 2.80551 3.84033C2.70801 4.56283 2.70801 5.48199 2.70801 6.62116V13.3795C2.70801 14.5187 2.70801 15.4378 2.80551 16.1603C2.90551 16.9103 3.12217 17.542 3.62301 18.0437C4.12467 18.5453 4.75634 18.7603 5.50634 18.862C6.22884 18.9587 7.14801 18.9587 8.28717 18.9587H11.7122C12.8513 18.9587 13.7705 18.9587 14.493 18.862C15.243 18.7603 15.8747 18.5453 16.3763 18.0437C16.878 17.542 17.093 16.9103 17.1947 16.1603C17.2913 15.4378 17.2913 14.5187 17.2913 13.3795V6.62116C17.2913 5.48199 17.2913 4.56283 17.1947 3.84033C17.093 3.09033 16.878 2.45866 16.3763 1.95699C15.8747 1.45533 15.243 1.24033 14.493 1.13949C13.7705 1.04199 12.8513 1.04199 11.7122 1.04199H8.28717ZM4.50801 2.84116C4.73884 2.61033 5.06217 2.46033 5.67467 2.37783C6.30301 2.29366 7.13801 2.29199 8.33384 2.29199H11.6672C12.863 2.29199 13.6972 2.29366 14.3272 2.37783C14.9388 2.46033 15.2622 2.61116 15.493 2.84116C15.7238 3.07199 15.8738 3.39533 15.9563 4.00783C16.0405 4.63616 16.0422 5.47116 16.0422 6.66699V12.7087H6.48467C5.80301 12.7087 5.33801 12.7087 4.93884 12.8153C4.58782 12.9093 4.2559 13.0639 3.95801 13.272V6.66699C3.95801 5.47116 3.95967 4.63616 4.04384 4.00699C4.12634 3.39533 4.27801 3.07199 4.50801 2.84116ZM3.98051 15.2078C3.99301 15.5028 4.01301 15.762 4.04384 15.9937C4.12634 16.6053 4.27717 16.9287 4.50717 17.1595C4.73801 17.3903 5.06134 17.5403 5.67384 17.6228C6.30218 17.707 7.13718 17.7087 8.33301 17.7087H11.6663C12.8622 17.7087 13.6963 17.707 14.3263 17.6228C14.938 17.5403 15.2613 17.3895 15.4922 17.1595C15.723 16.9287 15.873 16.6053 15.9555 15.9928C16.0247 15.4803 16.038 14.8303 16.0405 13.9587H6.58134C5.76634 13.9587 5.48134 13.9637 5.26217 14.0228C4.96846 14.1016 4.69832 14.2506 4.47504 14.4571C4.25175 14.6635 4.08203 14.9212 3.98051 15.2078Z" fill="#6C4E9A"/>
</svg>
