<svg width="19" height="20" viewBox="0 0 19 20" fill="none" xmlns="http://www.w3.org/2000/svg">
<path fill-rule="evenodd" clip-rule="evenodd" d="M6.993 16.837C7.162 15.414 6.931 13.93 6.417 12.598C5.848 11.124 5.092 9.528 4.998 7.941C4.919 6.604 5.222 5.022 6.03 3.939C6.915 2.753 8.368 2 9.967 2H11.479C12.7333 1.99994 13.9418 2.47129 14.8648 3.32058C15.7878 4.16987 16.3579 5.33504 16.462 6.585L16.823 10.917C16.8345 11.0549 16.8172 11.1936 16.7723 11.3245C16.7274 11.4554 16.6559 11.5755 16.5622 11.6773C16.4685 11.7791 16.3546 11.8603 16.2279 11.9159C16.1012 11.9714 15.9644 12.0001 15.826 12H10.5C10.1036 12.0005 9.7235 12.1576 9.44238 12.437C9.16126 12.7165 9.0019 13.0956 8.999 13.492C8.991 14.462 9.052 15.659 8.606 16.552C8.206 17.352 7.832 17.5 7.5 17.5C7.2 17.5 6.96 17.107 6.993 16.837ZM7.5 19.5C8.856 19.5 9.794 18.648 10.395 17.447C10.917 16.402 10.966 15.147 10.992 14H15.826C16.2411 14.0001 16.6516 13.914 17.0317 13.7472C17.4118 13.5805 17.7532 13.3366 18.0342 13.0312C18.3153 12.7257 18.5298 12.3652 18.6644 11.9726C18.799 11.5799 18.8506 11.1636 18.816 10.75L18.455 6.419C18.3093 4.66909 17.5112 3.03788 16.219 1.84888C14.9268 0.659885 13.235 -3.8147e-05 11.479 0H9.967C9.01837 -0.00270844 8.07927 0.189177 7.20775 0.563793C6.33622 0.93841 5.55079 1.4878 4.9 2.178C4.44283 2.05923 3.97235 1.99941 3.5 2C2.392 2 1.472 2.62 0.876 3.608C0.296 4.568 0 5.893 0 7.5C0 9.106 0.297 10.431 0.876 11.391C1.472 12.38 2.392 13 3.5 13C3.781 13 4.079 12.95 4.377 12.866C4.835 14.066 5.161 15.303 5.007 16.601C4.835 18.046 6.016 19.5 7.5 19.5ZM3.696 10.976C3.211 11.076 2.831 10.76 2.589 10.358C2.263 9.818 2 8.894 2 7.5C2 6.106 2.263 5.181 2.588 4.641C2.898 4.129 3.228 4 3.5 4C3.564 4 3.627 4.002 3.69 4.005C3.154 5.213 2.924 6.745 3.002 8.059C3.049 8.864 3.363 9.977 3.696 10.976Z" fill="#BDBDBD"/>
</svg>
