<svg width="24" height="24" viewBox="0 0 24 24" fill="none" xmlns="http://www.w3.org/2000/svg">
<path fill-rule="evenodd" clip-rule="evenodd" d="M7.33333 2.375C6.0183 2.375 4.75713 2.89739 3.82726 3.82726C2.89739 4.75713 2.375 6.0183 2.375 7.33333V16.6667C2.375 17.9817 2.89739 19.2429 3.82726 20.1727C4.75713 21.1026 6.0183 21.625 7.33333 21.625H16.6667C17.9817 21.625 19.2429 21.1026 20.1727 20.1727C21.1026 19.2429 21.625 17.9817 21.625 16.6667V7.33333C21.625 6.0183 21.1026 4.75713 20.1727 3.82726C19.2429 2.89739 17.9817 2.375 16.6667 2.375H7.33333ZM2.58983 2.58983C3.84788 1.33177 5.55417 0.625 7.33333 0.625H16.6667C18.4458 0.625 20.1521 1.33177 21.4102 2.58983C22.6682 3.84788 23.375 5.55417 23.375 7.33333V16.6667C23.375 18.4458 22.6682 20.1521 21.4102 21.4102C20.1521 22.6682 18.4458 23.375 16.6667 23.375H7.33333C5.55417 23.375 3.84788 22.6682 2.58983 21.4102C1.33177 20.1521 0.625 18.4458 0.625 16.6667V7.33333C0.625 5.55417 1.33177 3.84788 2.58983 2.58983ZM8.08161 8.08112C9.12088 7.04186 10.5304 6.45801 12.0002 6.45801C13.4699 6.45801 14.8794 7.04186 15.9187 8.08112C16.958 9.12039 17.5418 10.5299 17.5418 11.9997C17.5418 13.4694 16.958 14.879 15.9187 15.9182C14.8794 16.9575 13.4699 17.5413 12.0002 17.5413C10.5304 17.5413 9.12088 16.9575 8.08161 15.9182C7.04235 14.879 6.4585 13.4694 6.4585 11.9997C6.4585 10.5299 7.04235 9.12039 8.08161 8.08112ZM12.0002 8.20801C10.9945 8.20801 10.0301 8.60749 9.31905 9.31856C8.60797 10.0296 8.2085 10.9941 8.2085 11.9997C8.2085 13.0053 8.60797 13.9697 9.31905 14.6808C10.0301 15.3919 10.9945 15.7913 12.0002 15.7913C13.0058 15.7913 13.9702 15.3919 14.6813 14.6808C15.3924 13.9697 15.7918 13.0053 15.7918 11.9997C15.7918 10.9941 15.3924 10.0296 14.6813 9.31856C13.9702 8.60749 13.0058 8.20801 12.0002 8.20801ZM19.0756 6.17087C19.4007 5.8133 19.3743 5.25991 19.0168 4.93484C18.6592 4.60977 18.1058 4.63612 17.7807 4.99369L17.7691 5.00652C17.444 5.3641 17.4703 5.91749 17.8279 6.24256C18.1855 6.56763 18.7389 6.54128 19.064 6.18371L19.0756 6.17087Z" fill="white"/>
</svg>
