<svg width="22" height="22" viewBox="0 0 22 22" fill="none" xmlns="http://www.w3.org/2000/svg">
<path d="M19.8121 0.5H2.18788C1.256 0.5 0.5 1.256 0.5 2.18788V19.8121C0.5 20.744 1.256 21.5 2.18788 21.5H19.8121C20.744 21.5 21.5 20.744 21.5 19.8121V2.18788C21.5 1.256 20.744 0.5 19.8121 0.5ZM19.8121 19.82C8.05738 19.8174 2.18 19.8147 2.18 19.8121C2.18262 8.05738 2.18525 2.18 2.18788 2.18C13.9426 2.18262 19.82 2.18525 19.82 2.18788C19.8174 13.9426 19.8147 19.82 19.8121 19.82ZM3.61325 8.37237H6.72912V18.3946H3.61325V8.37237ZM5.1725 7.00213C6.16738 7.00213 6.9785 6.19362 6.9785 5.19612C6.9785 4.95896 6.93179 4.72411 6.84103 4.505C6.75027 4.28588 6.61724 4.08679 6.44953 3.91909C6.28183 3.75139 6.08274 3.61836 5.86363 3.5276C5.64451 3.43684 5.40967 3.39013 5.1725 3.39013C4.93533 3.39013 4.70049 3.43684 4.48137 3.5276C4.26226 3.61836 4.06317 3.75139 3.89547 3.91909C3.72776 4.08679 3.59473 4.28588 3.50397 4.505C3.41321 4.72411 3.3665 4.95896 3.3665 5.19612C3.36387 6.19362 4.17237 7.00213 5.1725 7.00213ZM11.7954 13.436C11.7954 12.1287 12.0447 10.8635 13.6644 10.8635C15.2604 10.8635 15.284 12.3571 15.284 13.52V18.3946H18.3972V12.8979C18.3972 10.1994 17.8145 8.123 14.6619 8.123C13.1472 8.123 12.1314 8.95512 11.714 9.74263H11.672V8.37237H8.68213V18.3946H11.7954V13.436Z" fill="white"/>
</svg>
