<svg width="23" height="22" viewBox="0 0 23 22" fill="none" xmlns="http://www.w3.org/2000/svg">
<g clip-path="url(#clip0_1838_15160)">
<path fill-rule="evenodd" clip-rule="evenodd" d="M13.4478 18.3081C13.2443 18.4585 13.0234 18.5831 12.7805 18.6473C12.0967 18.8306 11.3496 18.5575 10.6969 18.3741C6.32166 17.143 3.39107 15.2153 2.55049 12.3388C1.87949 10.0416 2.52482 7.74078 3.94382 6.31078C5.25832 4.9862 7.20716 4.44903 9.20641 5.30978C10.5081 3.56445 12.4652 3.05478 14.2655 3.5452C16.2088 4.07412 17.9175 5.74428 18.4849 8.06895C18.5967 8.52453 18.6517 8.98928 18.6527 9.46137C18.8864 9.58053 19.1082 9.72903 19.3127 9.90137C20.3732 10.7988 20.9397 12.3232 20.6235 13.9081C20.2202 15.9303 18.3456 17.3502 15.6643 18.364C15.2051 18.5382 14.7027 18.7536 14.2013 18.6656C13.9227 18.6161 13.6733 18.4731 13.4478 18.3081ZM4.31049 11.8245C3.82007 10.1443 4.31324 8.54195 5.24549 7.60237C6.14016 6.70037 7.46657 6.36487 8.93324 7.22287C9.44566 7.52262 10.1066 7.34478 10.3999 6.83053C11.2414 5.35378 12.5577 4.9807 13.7833 5.31437C15.0612 5.6627 16.2895 6.80303 16.7038 8.50345C16.7542 8.70787 16.7882 8.91687 16.8047 9.13137C16.4688 9.17415 16.1412 9.26716 15.833 9.40728C14.8485 8.44753 13.545 8.2587 12.3955 8.6822C11.092 9.16162 10.0378 10.4009 9.79216 11.9987C9.54191 13.6349 10.3147 15.23 11.7529 16.7635C11.5714 16.7177 11.3835 16.6627 11.1937 16.6095C6.94866 15.4151 4.86874 13.7358 4.31049 11.8245ZM11.6053 12.2765C11.752 11.314 12.3744 10.6439 13.0289 10.4019C13.6339 10.18 14.3058 10.2964 14.8164 11.0344C14.8925 11.1443 14.9897 11.2381 15.1023 11.3103C15.2149 11.3824 15.3406 11.4316 15.4723 11.4548C15.604 11.4781 15.739 11.4751 15.8695 11.4458C16 11.4166 16.1235 11.3618 16.2327 11.2846C16.966 10.7649 17.637 10.8859 18.1283 11.3011C18.6618 11.7521 19.0157 12.5955 18.825 13.5497C18.6187 14.5855 17.571 15.6837 15.0162 16.649C14.854 16.7104 14.6927 16.7764 14.5258 16.825C14.3856 16.7214 14.2563 16.6049 14.1243 16.4922C12.0545 14.7111 11.4449 13.3205 11.6053 12.2755" fill="white"/>
</g>
<defs>
<clipPath id="clip0_1838_15160">
<rect width="22" height="22" fill="white" transform="translate(0.5)"/>
</clipPath>
</defs>
</svg>
