<svg width="22" height="22" viewBox="0 0 22 22" fill="none" xmlns="http://www.w3.org/2000/svg">
<path fill-rule="evenodd" clip-rule="evenodd" d="M12.9478 18.3081C12.7443 18.4585 12.5234 18.5831 12.2805 18.6473C11.5967 18.8306 10.8496 18.5575 10.1969 18.3741C5.82166 17.143 2.89107 15.2153 2.05049 12.3388C1.37949 10.0416 2.02482 7.74078 3.44382 6.31078C4.75832 4.9862 6.70716 4.44903 8.70641 5.30978C10.0081 3.56445 11.9652 3.05478 13.7655 3.5452C15.7088 4.07412 17.4175 5.74428 17.9849 8.06895C18.0967 8.52453 18.1517 8.98928 18.1527 9.46137C18.3864 9.58053 18.6082 9.72903 18.8127 9.90137C19.8732 10.7988 20.4397 12.3232 20.1235 13.9081C19.7202 15.9303 17.8456 17.3502 15.1643 18.364C14.7051 18.5382 14.2027 18.7536 13.7013 18.6656C13.4227 18.6161 13.1733 18.4731 12.9478 18.3081ZM3.81049 11.8245C3.32007 10.1443 3.81324 8.54195 4.74549 7.60237C5.64016 6.70037 6.96657 6.36487 8.43324 7.22287C8.94566 7.52262 9.60657 7.34478 9.89991 6.83053C10.7414 5.35378 12.0577 4.9807 13.2833 5.31437C14.5612 5.6627 15.7895 6.80303 16.2038 8.50345C16.2542 8.70787 16.2882 8.91687 16.3047 9.13137C15.9688 9.17415 15.6412 9.26716 15.333 9.40728C14.3485 8.44753 13.045 8.2587 11.8955 8.6822C10.592 9.16162 9.53782 10.4009 9.29216 11.9987C9.04191 13.6349 9.81466 15.23 11.2529 16.7635C11.0714 16.7177 10.8835 16.6627 10.6937 16.6095C6.44866 15.4151 4.36874 13.7358 3.81049 11.8245ZM11.1053 12.2765C11.252 11.314 11.8744 10.6439 12.5289 10.4019C13.1339 10.18 13.8058 10.2964 14.3164 11.0344C14.3925 11.1443 14.4897 11.2381 14.6023 11.3103C14.7149 11.3824 14.8406 11.4316 14.9723 11.4548C15.104 11.4781 15.239 11.4751 15.3695 11.4458C15.5 11.4166 15.6235 11.3618 15.7327 11.2846C16.466 10.7649 17.137 10.8859 17.6283 11.3011C18.1618 11.7521 18.5157 12.5955 18.325 13.5497C18.1187 14.5855 17.071 15.6837 14.5162 16.649C14.354 16.7104 14.1927 16.7764 14.0258 16.825C13.8856 16.7214 13.7563 16.6049 13.6243 16.4922C11.5545 14.7111 10.9449 13.3205 11.1053 12.2755" fill="#6C4E9A"/>
</svg>
