<svg width="23" height="23" viewBox="0 0 23 23" fill="none" xmlns="http://www.w3.org/2000/svg">
<path fill-rule="evenodd" clip-rule="evenodd" d="M10.0625 3.59375C6.48991 3.59375 3.59375 6.48991 3.59375 10.0625C3.59375 13.6351 6.48991 16.5312 10.0625 16.5312C11.849 16.5312 13.4652 15.808 14.6366 14.6366C15.808 13.4652 16.5312 11.849 16.5312 10.0625C16.5312 6.48991 13.6351 3.59375 10.0625 3.59375ZM2.15625 10.0625C2.15625 5.696 5.696 2.15625 10.0625 2.15625C14.429 2.15625 17.9688 5.696 17.9688 10.0625C17.9688 11.9867 17.2806 13.7512 16.1383 15.1218L20.6332 19.6168C20.9139 19.8975 20.9139 20.3525 20.6332 20.6332C20.3525 20.9139 19.8975 20.9139 19.6168 20.6332L15.1218 16.1383C13.7512 17.2806 11.9867 17.9688 10.0625 17.9688C5.696 17.9688 2.15625 14.429 2.15625 10.0625Z" fill="#9B9CA1"/>
</svg>
