<svg width="20" height="20" viewBox="0 0 20 20" fill="none" xmlns="http://www.w3.org/2000/svg">
<path fill-rule="evenodd" clip-rule="evenodd" d="M7.493 3.163C7.662 4.586 7.431 6.07 6.917 7.402C6.348 8.876 5.592 10.472 5.498 12.059C5.419 13.396 5.722 14.978 6.53 16.061C7.415 17.247 8.868 18 10.467 18H11.979C13.2333 18.0001 14.4418 17.5287 15.3648 16.6794C16.2878 15.8301 16.8579 14.665 16.962 13.415L17.323 9.083C17.3345 8.94512 17.3172 8.80636 17.2723 8.67549C17.2274 8.54463 17.1559 8.4245 17.0622 8.32271C16.9685 8.22092 16.8546 8.13968 16.7279 8.08413C16.6012 8.02859 16.4644 7.99994 16.326 8H11C10.6036 7.99948 10.2235 7.84241 9.94238 7.56297C9.66126 7.28354 9.5019 6.90437 9.499 6.508C9.491 5.538 9.552 4.341 9.106 3.448C8.706 2.648 8.332 2.5 8 2.5C7.7 2.5 7.46 2.893 7.493 3.163ZM8 0.5C9.356 0.5 10.294 1.352 10.895 2.553C11.417 3.598 11.466 4.853 11.492 6H16.326C16.7411 5.99994 17.1516 6.08601 17.5317 6.25278C17.9118 6.41954 18.2532 6.66336 18.5342 6.96883C18.8153 7.2743 19.0298 7.63475 19.1644 8.02741C19.299 8.42006 19.3506 8.83637 19.316 9.25L18.955 13.581C18.8093 15.3309 18.0112 16.9621 16.719 18.1511C15.4268 19.3401 13.735 20 11.979 20H10.467C9.51837 20.0027 8.57927 19.8108 7.70775 19.4362C6.83622 19.0616 6.05079 18.5122 5.4 17.822C4.94283 17.9408 4.47235 18.0006 4 18C2.892 18 1.972 17.38 1.376 16.392C0.796 15.432 0.5 14.107 0.5 12.5C0.5 10.894 0.797 9.569 1.376 8.609C1.972 7.62 2.892 7 4 7C4.281 7 4.579 7.05 4.877 7.134C5.335 5.934 5.661 4.697 5.507 3.399C5.335 1.954 6.516 0.5 8 0.5ZM4.196 9.024C3.711 8.924 3.331 9.24 3.089 9.642C2.763 10.182 2.5 11.106 2.5 12.5C2.5 13.894 2.763 14.819 3.088 15.359C3.398 15.871 3.728 16 4 16C4.064 16 4.127 15.998 4.19 15.995C3.654 14.787 3.424 13.255 3.502 11.941C3.549 11.136 3.863 10.023 4.196 9.024Z" fill="#BDBDBD"/>
</svg>
